<svg width="33" height="28" viewBox="0 0 33 28" fill="none" xmlns="http://www.w3.org/2000/svg">
<path d="M21.2763 0.152588V0.168386H11.7973C8.86434 0.168386 6.05148 1.33351 3.97755 3.40744C1.90362 5.48137 0.738495 8.29423 0.738495 11.2272V25.6511C0.738495 26.0701 0.904941 26.4719 1.20122 26.7682C1.49749 27.0645 1.89933 27.2309 2.31833 27.2309C2.62851 27.2317 2.93158 27.138 3.18723 26.9623L9.34858 22.8548C9.91406 22.4754 10.5792 22.272 11.2602 22.2702H21.2763C24.2093 22.2702 27.0221 21.1051 29.0961 19.0312C31.17 16.9572 32.3351 14.1444 32.3351 11.2114C32.3351 8.27843 31.17 5.46557 29.0961 3.39164C27.0221 1.31771 24.2093 0.152588 21.2763 0.152588ZM22.8561 12.807C22.5437 12.807 22.2382 12.7144 21.9784 12.5408C21.7186 12.3672 21.5161 12.1205 21.3966 11.8318C21.277 11.5431 21.2457 11.2255 21.3067 10.919C21.3676 10.6125 21.5181 10.331 21.739 10.1101C21.96 9.88915 22.2415 9.73869 22.5479 9.67773C22.8544 9.61678 23.172 9.64806 23.4607 9.76764C23.7494 9.88721 23.9961 10.0897 24.1697 10.3495C24.3433 10.6093 24.436 10.9147 24.436 11.2272C24.436 11.6462 24.2695 12.048 23.9732 12.3443C23.677 12.6406 23.2751 12.807 22.8561 12.807ZM8.63765 11.2272C8.63765 10.9147 8.73031 10.6093 8.9039 10.3495C9.0775 10.0897 9.32423 9.88721 9.61291 9.76764C9.90159 9.64806 10.2192 9.61678 10.5257 9.67773C10.8322 9.73869 11.1137 9.88915 11.3346 10.1101C11.5555 10.331 11.706 10.6125 11.767 10.919C11.8279 11.2255 11.7966 11.5431 11.6771 11.8318C11.5575 12.1205 11.355 12.3672 11.0952 12.5408C10.8354 12.7144 10.5299 12.807 10.2175 12.807C9.79849 12.807 9.39665 12.6406 9.10038 12.3443C8.8041 12.048 8.63765 11.6462 8.63765 11.2272ZM16.5368 12.807C16.2244 12.807 15.9189 12.7144 15.6591 12.5408C15.3993 12.3672 15.1968 12.1205 15.0772 11.8318C14.9577 11.5431 14.9264 11.2255 14.9873 10.919C15.0483 10.6125 15.1988 10.331 15.4197 10.1101C15.6406 9.88915 15.9221 9.73869 16.2286 9.67773C16.5351 9.61678 16.8527 9.64806 17.1414 9.76764C17.4301 9.88721 17.6768 10.0897 17.8504 10.3495C18.024 10.6093 18.1166 10.9147 18.1166 11.2272C18.1166 11.6462 17.9502 12.048 17.6539 12.3443C17.3576 12.6406 16.9558 12.807 16.5368 12.807Z" fill="white"/>
</svg>
