<svg width="33" height="32" viewBox="0 0 33 32" fill="none" xmlns="http://www.w3.org/2000/svg">
<path d="M16.5967 0.0731201C13.4721 0.0731201 10.4177 0.999675 7.81965 2.73562C5.22163 4.47156 3.19672 6.93892 2.00098 9.82568C0.805246 12.7124 0.492387 15.889 1.10197 18.9535C1.71155 22.0181 3.21619 24.8331 5.42563 27.0425C7.63506 29.252 10.4501 30.7566 13.5146 31.3662C16.5792 31.9758 19.7557 31.6629 22.6425 30.4672C25.5292 29.2714 27.9966 27.2465 29.7325 24.6485C31.4685 22.0505 32.395 18.9961 32.395 15.8714C32.3884 11.6835 30.7218 7.66904 27.7604 4.70772C24.7991 1.74641 20.7846 0.0798048 16.5967 0.0731201ZM15.3013 20.7373C15.1377 20.7403 14.9754 20.708 14.8254 20.6426C14.6755 20.5771 14.5414 20.4801 14.4324 20.3582L10.1984 15.8082L11.9362 14.1968L15.3013 17.8146L21.2572 11.3847L22.995 12.9961L16.1702 20.3582C16.0592 20.4777 15.9247 20.5731 15.7752 20.6383C15.6257 20.7035 15.4644 20.7372 15.3013 20.7373Z" fill="white"/>
</svg>
