<svg width="56" height="39" viewBox="0 0 56 39" fill="none" xmlns="http://www.w3.org/2000/svg">
<path d="M30.59 6.93C30.8 7.36 31.29 7.58 31.75 7.45C33.35 7.02 35.07 6.94 36.72 7.23C41.32 8.05 44.98 11.7 45.81 16.3C45.91 16.84 46.43 17.21 46.97 17.1C47.51 17 47.87 16.48 47.78 15.94C46.8 10.53 42.5 6.24 37.08 5.27C35.4 4.97 33.66 4.99 32 5.34C30.07 2.02 26.57 0 22.69 0C16.97 0 12.28 4.48 11.93 10.11C5.52 9.41 0 14.51 0 20.83C0 26.77 4.84 31.61 10.78 31.61H26.61C27.16 31.61 27.61 31.16 27.61 30.61C27.61 30.06 27.16 29.61 26.61 29.61H10.78C5.94 29.61 2 25.67 2 20.83C2 15.35 7.1 11.05 12.71 12.26C12.72 12.26 12.73 12.26 12.74 12.26C12.77 12.28 12.8 12.31 12.84 12.33C13.73 12.7 14.3 13.57 14.3 14.53C14.3 15.08 14.75 15.53 15.3 15.53C15.85 15.53 16.3 15.08 16.3 14.53C16.3 12.88 15.37 11.39 13.93 10.65C13.99 5.86 17.9 2 22.69 2C26.07 2 29.1 3.89 30.59 6.93Z" fill="#3097F5"/>
<path d="M56 28.65C56 27.45 55.46 26.38 54.62 25.65C55.46 24.92 56 23.85 56 22.65C56 20.44 54.21 18.65 52 18.65H34C31.79 18.65 30 20.44 30 22.65C30 23.85 30.54 24.92 31.38 25.65C30.54 26.38 30 27.45 30 28.65C30 29.85 30.54 30.92 31.38 31.65C30.54 32.38 30 33.45 30 34.65C30 36.86 31.79 38.65 34 38.65H52C54.21 38.65 56 36.86 56 34.65C56 33.45 55.46 32.38 54.62 31.65C55.46 30.91 56 29.85 56 28.65ZM32 22.65C32 21.55 32.9 20.65 34 20.65H52C53.1 20.65 54 21.55 54 22.65C54 23.75 53.1 24.65 52 24.65H34C32.9 24.65 32 23.75 32 22.65ZM54 34.65C54 35.75 53.1 36.65 52 36.65H34C32.9 36.65 32 35.75 32 34.65C32 33.55 32.9 32.65 34 32.65H52C53.1 32.65 54 33.54 54 34.65ZM34 30.65C32.9 30.65 32 29.75 32 28.65C32 27.55 32.9 26.65 34 26.65H52C53.1 26.65 54 27.55 54 28.65C54 29.75 53.1 30.65 52 30.65H34Z" fill="#ADD8FF"/>
<path d="M38.98 27.64H36.44C35.89 27.64 35.44 28.09 35.44 28.64C35.44 29.19 35.89 29.64 36.44 29.64H38.98C39.53 29.64 39.98 29.19 39.98 28.64C39.98 28.09 39.54 27.64 38.98 27.64Z" fill="#3097F5"/>
<path d="M38.98 21.65H36.44C35.89 21.65 35.44 22.1 35.44 22.65C35.44 23.2 35.89 23.65 36.44 23.65H38.98C39.53 23.65 39.98 23.2 39.98 22.65C39.98 22.09 39.54 21.65 38.98 21.65Z" fill="#3097F5"/>
<path d="M36.45 35.65H38.99C39.54 35.65 39.99 35.2 39.99 34.65C39.99 34.1 39.54 33.65 38.99 33.65H36.45C35.9 33.65 35.45 34.1 35.45 34.65C35.45 35.2 35.89 35.65 36.45 35.65Z" fill="#3097F5"/>
<path d="M19.69 5.51997C19.3 5.90997 19.3 6.53997 19.69 6.92997C20.08 7.31997 20.71 7.31997 21.1 6.92997C21.97 6.05997 23.38 6.05997 24.25 6.92997C24.45 7.12997 24.7 7.21997 24.96 7.21997C25.22 7.21997 25.47 7.11997 25.67 6.92997C26.06 6.53997 26.06 5.90997 25.67 5.51997C24.03 3.86997 21.34 3.86997 19.69 5.51997Z" fill="#3097F5"/>
<path d="M9.64998 26.26C10.2 26.26 10.65 25.81 10.65 25.26C10.65 24.71 10.2 24.26 9.64998 24.26C8.41998 24.26 7.41998 23.26 7.41998 22.03C7.41998 21.75 7.30998 21.5 7.12998 21.32C6.94998 21.14 6.69998 21.03 6.41998 21.03C5.86998 21.03 5.41998 21.48 5.41998 22.03C5.41998 24.36 7.31998 26.26 9.64998 26.26Z" fill="#3097F5"/>
</svg>
