<svg width="56" height="32" viewBox="0 0 56 32" fill="none" xmlns="http://www.w3.org/2000/svg">
<path d="M2 16.55C2 12.99 8.83 9.55003 18.62 8.18003C19.17 8.10003 19.55 7.60003 19.47 7.05003C19.39 6.50003 18.89 6.12003 18.34 6.20003C7.2 7.75003 0 11.82 0 16.55C0 18.09 0.72 19.56 2.15 20.91C2.34 21.09 2.59 21.18 2.84 21.18C3.1 21.18 3.37 21.08 3.57 20.87C3.95 20.47 3.93 19.84 3.53 19.46C2.51 18.5 2 17.52 2 16.55Z" fill="#3097F5"/>
<path d="M30.95 25.49C28.65 25.58 26.23 25.57 23.91 25.43C23.38 25.41 22.89 25.82 22.86 26.37C22.83 26.92 23.25 27.39 23.8 27.42C25.18 27.5 26.59 27.54 28 27.54C29.03 27.54 30.04 27.52 31.03 27.48C31.58 27.46 32.01 26.99 31.99 26.44C31.97 25.9 31.48 25.44 30.95 25.49Z" fill="#3097F5"/>
<path d="M37.66 6.20003C37.11 6.12003 36.61 6.50003 36.53 7.05003C36.45 7.60003 36.83 8.10003 37.38 8.18003C47.17 9.55003 54 12.99 54 16.55C54 18.12 52.62 19.45 51.47 20.29C51.02 20.61 50.92 21.24 51.25 21.69C51.45 21.96 51.75 22.1 52.06 22.1C52.26 22.1 52.47 22.04 52.65 21.91C54.85 20.32 56.01 18.47 56.01 16.55C56 11.82 48.8 7.75003 37.66 6.20003Z" fill="#3097F5"/>
<path d="M28.02 0C24.16 0 21.02 3.14 21.02 7C21.02 10.86 24.16 14 28.02 14C31.88 14 35.02 10.86 35.02 7C35.02 3.14 31.88 0 28.02 0ZM28.02 12C25.26 12 23.02 9.76 23.02 7C23.02 4.24 25.26 2 28.02 2C30.78 2 33.02 4.24 33.02 7C33.02 9.76 30.77 12 28.02 12Z" fill="#ADD8FF"/>
<path d="M42 17.55C38.14 17.55 35 20.69 35 24.55C35 28.41 38.14 31.55 42 31.55C45.86 31.55 49 28.41 49 24.55C49 20.69 45.86 17.55 42 17.55ZM42 29.55C39.24 29.55 37 27.31 37 24.55C37 21.79 39.24 19.55 42 19.55C44.76 19.55 47 21.79 47 24.55C47 27.31 44.76 29.55 42 29.55Z" fill="#ADD8FF"/>
<path d="M14 17.55C10.14 17.55 7 20.69 7 24.55C7 28.41 10.14 31.55 14 31.55C17.86 31.55 21 28.41 21 24.55C21 20.69 17.86 17.55 14 17.55ZM14 29.55C11.24 29.55 9 27.31 9 24.55C9 21.79 11.24 19.55 14 19.55C16.76 19.55 19 21.79 19 24.55C19 27.31 16.76 29.55 14 29.55Z" fill="#ADD8FF"/>
</svg>
