<svg width="56" height="56" viewBox="0 0 56 56" fill="none" xmlns="http://www.w3.org/2000/svg">
<g clip-path="url(#clip0_1_266)">
<path d="M23.09 26.33C22.5377 26.4266 22.1683 26.9527 22.265 27.505C22.3616 28.0572 22.8877 28.4266 23.44 28.33H23.44C26.4372 27.7805 29.5221 27.9519 32.44 28.83C32.5302 28.861 32.6246 28.8779 32.72 28.88C33.2723 28.96 33.7849 28.5772 33.865 28.025C33.9451 27.4727 33.5623 26.96 33.01 26.88C29.7941 25.9104 26.3934 25.7219 23.09 26.33H23.09Z" fill="#ADD8FF"/>
<path d="M52.63 31.2399C50.37 27.1699 46.49 26.8199 43.02 26.8199C41.5632 24.8302 39.672 23.1988 37.49 22.0499C37.004 21.7737 36.3861 21.9439 36.11 22.4299C35.8339 22.9159 36.004 23.5337 36.49 23.8099C40.66 26.0899 43 29.4699 43 33.0799C43 35.9199 41.49 38.6699 38.74 40.8399C38.4524 41.0652 38.3105 41.4294 38.37 41.7899H38.37C38.8021 44.3348 38.7682 46.9371 38.27 49.4699H35.17C34.9 48.1097 34.7627 46.7266 34.76 45.3399C34.76 45.1099 34.76 44.8799 34.76 44.6599C34.773 44.3311 34.6234 44.017 34.36 43.8199C34.0968 43.6213 33.7526 43.5652 33.44 43.6699C30.9618 44.5013 28.3639 44.9202 25.75 44.9099H25.75C23.4683 44.9272 21.1957 44.6208 19 43.9999C18.4699 43.8448 17.9145 44.1488 17.7594 44.6788C17.729 44.783 17.7156 44.8914 17.72 44.9999V44.9999C17.7538 46.5196 17.623 48.0384 17.33 49.5299H14.15V49.5299C13.8794 48.153 13.7421 46.7532 13.74 45.3499V45.3499C13.737 44.3793 13.8072 43.4099 13.95 42.4499C14.0166 42.0609 13.8481 41.6692 13.52 41.4499L13.07 41.1299V41.1299C12.0071 40.3502 10.8679 39.6801 9.67002 39.1299L9.67002 39.1299C5.95108 37.3629 3.21797 34.0245 2.22002 30.0299H2.22002C6.00237 29.8296 9.58222 28.2583 12.29 25.6099C12.6777 25.2198 12.6777 24.5899 12.29 24.1999H12.29C11.1927 23.0669 10.3025 21.7503 9.66002 20.3099H9.66001C11.11 21.1176 12.6798 21.6882 14.31 21.9999C15.2497 22.1761 16.2039 22.2631 17.16 22.2599C17.7123 22.2599 18.16 21.8122 18.16 21.2599C18.16 20.7076 17.7123 20.2599 17.16 20.2599H17.16C16.3236 20.2535 15.4897 20.1665 14.67 19.9999H14.67C12.3935 19.5901 10.2594 18.6057 8.47001 17.1399C8.04405 16.7884 7.41377 16.8487 7.06223 17.2746C6.86336 17.5156 6.78855 17.8357 6.86001 18.1399V18.1399C7.40029 20.6268 8.54 22.9439 10.18 24.8899C7.70598 26.988 4.5639 28.1335 1.32001 28.1199H1.10001C0.550809 28.0616 0.0583256 28.4595 5.54929e-06 29.0087C-0.0074481 29.0789 -0.00744814 29.1497 5.43892e-06 29.2199H5.5139e-06C0.806659 34.3624 4.10512 38.7728 8.81001 40.9999C9.88605 41.4855 10.9139 42.0714 11.88 42.7499L11.88 42.7499C11.7782 43.6061 11.7281 44.4677 11.73 45.3299V45.329C11.7309 47.1506 11.9422 48.966 12.3598 50.7391C12.4686 51.2002 12.8861 51.5217 13.3598 51.5091H18.1098C18.5835 51.5217 19.001 51.2002 19.1098 50.7391C19.4573 49.2692 19.6583 47.7686 19.7098 46.2591C21.7063 46.7238 23.75 46.9554 25.7998 46.9491C28.1646 46.96 30.5198 46.6471 32.7998 46.0191C32.848 47.6092 33.0557 49.1904 33.4198 50.7391C33.5286 51.2002 33.9461 51.5217 34.4198 51.5091H39.1698C39.6435 51.5217 40.061 51.2002 40.1698 50.7391C40.8221 47.8715 40.9274 44.9065 40.48 41.9999C43.2683 39.8319 44.941 36.5305 45.04 32.9999V33.0007C45.0393 31.539 44.7293 30.094 44.1303 28.7606C46.3703 28.8406 48.1303 29.2306 49.4503 30.3606C49.0039 30.4881 48.5931 30.7174 48.2503 31.0306V31.0306C46.9679 32.1979 46.8746 34.1839 48.0419 35.4663C48.6104 36.0908 49.4064 36.46 50.2503 36.4906H50.4103C51.1864 36.4894 51.9345 36.2008 52.5103 35.6806C52.8931 35.3231 53.1817 34.8765 53.3503 34.3806C54.1533 35.7954 54.2494 37.504 53.61 38.9999C53.4309 39.5218 53.7084 40.0901 54.23 40.2699H54.23C54.3329 40.3051 54.4412 40.3221 54.55 40.3199C54.9955 40.3446 55.4035 40.0713 55.55 39.6499C56.73 36.0799 55.66 32.9999 52.63 31.2399V31.2399ZM51.12 34.2399C50.8987 34.4461 50.6017 34.5512 50.3 34.5299C49.9964 34.5231 49.7096 34.3888 49.51 34.1599C49.3068 33.9368 49.2023 33.6411 49.22 33.3399C49.2417 32.7331 49.7429 32.2541 50.35 32.2599H50.41C50.6866 32.2722 50.948 32.3904 51.14 32.5899L51.23 32.6799C51.4124 32.8975 51.5054 33.1763 51.49 33.4599C51.4931 33.7743 51.3578 34.0742 51.12 34.2799V34.2399Z" fill="#3097F5"/>
<path d="M16.3771 27.7029C16.7676 28.0935 16.7676 28.7266 16.3771 29.1171C15.9866 29.5077 15.3534 29.5077 14.9629 29.1171C14.5724 28.7266 14.5724 28.0934 14.9629 27.7029C15.3534 27.3124 15.9866 27.3124 16.3771 27.7029Z" fill="#ADD8FF"/>
<path d="M28 15.4801C27.6605 15.477 27.3235 15.423 27 15.3201C26.645 15.2386 26.3067 15.0965 26 14.9001L25.46 16.1301C25.749 16.3126 26.062 16.4539 26.39 16.5501C26.7779 16.6629 27.1769 16.7334 27.58 16.7601V17.6601H28.58V16.7301V16.7301C29.111 16.672 29.609 16.444 30 16.0801C30.3259 15.7667 30.5069 15.3321 30.5 14.8801C30.525 14.5181 30.4105 14.1603 30.18 13.8801C29.9706 13.65 29.7103 13.4719 29.42 13.3601V13.3601C29.0582 13.2318 28.6871 13.1315 28.31 13.0601C28.0161 13.0041 27.7281 12.9204 27.45 12.8101C27.2925 12.7659 27.1828 12.6236 27.18 12.4601V12.4601C27.1804 12.3033 27.2642 12.1585 27.4 12.0801C27.6377 11.9843 27.8974 11.9566 28.15 12.0001C28.7231 12.0156 29.2833 12.1737 29.78 12.4601L30.29 11.2301C30.0466 11.0843 29.7841 10.9733 29.51 10.9001C29.2087 10.8176 28.9009 10.7607 28.59 10.7301V9.83008H27.59V10.7501C27.0334 10.7854 26.5049 11.0074 26.09 11.3801V11.3801C25.7506 11.7023 25.5619 12.1521 25.57 12.6201C25.5418 12.9824 25.6567 13.3414 25.89 13.6201V13.6201C26.0946 13.8557 26.3563 14.0348 26.65 14.1401H26.65C27.0094 14.2677 27.3768 14.3713 27.75 14.4501C28.051 14.5034 28.3459 14.5871 28.63 14.7001C28.7887 14.7546 28.8965 14.9023 28.9 15.0701C28.9 15.3201 28.58 15.4801 28 15.4801H28Z" fill="#3097F5"/>
<path d="M28 23.44C33.3682 23.44 37.72 19.0882 37.72 13.72C37.72 8.35179 33.3682 4 28 4C22.6318 4 18.28 8.35179 18.28 13.72V13.7201C18.2856 19.086 22.6342 23.4345 28.0001 23.44L28 23.44ZM28 6C32.2636 6 35.72 9.45636 35.72 13.72C35.72 17.9836 32.2636 21.44 28 21.44C23.7364 21.44 20.28 17.9836 20.28 13.72V13.72C20.28 9.45636 23.7364 6 28 6V6Z" fill="#ADD8FF"/>
</g>
<defs>
<clipPath id="clip0_1_266">
<rect width="56" height="47.47" fill="white" transform="translate(0 4)"/>
</clipPath>
</defs>
</svg>
