<svg width="116" height="38" viewBox="0 0 116 38" fill="none" xmlns="http://www.w3.org/2000/svg">
<path d="M52.984 18.0098V21.9276H57.9554V24.1724H52.984V30.589H49.7262V15.7651H58.865V18.0098H52.984Z" fill="white"/>
<path d="M66.6557 18.7934C67.3327 18.7934 67.8263 18.9416 68.1365 19.2381C68.4468 19.5205 68.6019 19.9793 68.6019 20.6146C68.6019 20.8546 68.5667 21.0946 68.4962 21.3346C68.4397 21.5605 68.3551 21.737 68.2423 21.8641C68.0731 21.7652 67.8827 21.6947 67.6711 21.6523C67.4596 21.6099 67.1564 21.5888 66.7615 21.5888C65.8448 21.5888 65.1608 21.8711 64.7095 22.4359C64.2723 23.0006 64.0537 23.8618 64.0537 25.0195V30.589H60.9228V18.9416H64.0537V20.4876C64.3357 19.937 64.7024 19.5205 65.1537 19.2381C65.605 18.9416 66.1057 18.7934 66.6557 18.7934Z" fill="white"/>
<path d="M80.4999 24.003C80.4999 24.2006 80.4647 24.6453 80.3942 25.3371H72.9054C72.9759 26.4101 73.2298 27.243 73.667 27.836C74.1183 28.429 74.7036 28.7254 75.4228 28.7254C75.7472 28.7254 76.0152 28.6831 76.2267 28.5984C76.4523 28.5137 76.678 28.3654 76.9036 28.1537C77.1434 27.9278 77.4537 27.5678 77.8345 27.0736C77.905 26.9607 78.0531 26.9042 78.2787 26.9042C78.5185 26.9042 78.8076 26.9889 79.146 27.1583C79.4986 27.3136 79.8724 27.5395 80.2672 27.836C79.3505 29.8125 77.7357 30.8008 75.4228 30.8008C73.6458 30.8008 72.2496 30.2643 71.2342 29.1913C70.2188 28.1042 69.7111 26.6219 69.7111 24.7442C69.7111 23.5159 69.9367 22.45 70.388 21.5464C70.8534 20.6429 71.5092 19.9511 72.3554 19.4711C73.2157 18.9769 74.2311 18.7299 75.4017 18.7299C77.0235 18.7299 78.2787 19.1887 79.1672 20.1064C80.0557 21.024 80.4999 22.3229 80.4999 24.003ZM77.3267 23.5582C77.3267 21.6664 76.6639 20.7205 75.3382 20.7205C74.6613 20.7205 74.1183 20.9605 73.7093 21.4405C73.3003 21.9205 73.0465 22.6264 72.9477 23.5582H77.3267Z" fill="white"/>
<path d="M86.3191 30.8008C84.937 30.8008 83.844 30.589 83.0402 30.1655C82.2504 29.7419 81.8555 29.1984 81.8555 28.5348C81.8555 28.1395 81.9895 27.8078 82.2574 27.5395C82.5395 27.2572 82.9414 27.1019 83.4632 27.0736C83.7594 27.6384 84.1402 28.0619 84.6056 28.3443C85.0851 28.6266 85.6845 28.7678 86.4037 28.7678C87.6448 28.7678 88.2654 28.3019 88.2654 27.3701C88.2654 26.9889 88.0891 26.6995 87.7365 26.5019C87.3839 26.3042 86.8057 26.0713 86.0018 25.803C85.1838 25.5348 84.5069 25.2736 83.971 25.0195C83.4491 24.7653 82.9978 24.3983 82.6171 23.9182C82.2363 23.4241 82.0459 22.7888 82.0459 22.0123C82.0459 21.3488 82.2504 20.7699 82.6594 20.2758C83.0825 19.7675 83.6325 19.3864 84.3094 19.1322C85.0005 18.864 85.7479 18.7299 86.5518 18.7299C87.5814 18.7299 88.4839 18.9275 89.2596 19.3228C90.0353 19.7181 90.6417 20.2476 91.0789 20.9111C90.8956 21.2641 90.6417 21.5747 90.3174 21.8429C90.0071 22.097 89.725 22.2241 89.4712 22.2241C89.3301 22.2241 89.2103 22.2029 89.1115 22.1606C89.0128 22.1041 88.9141 22.0194 88.8154 21.9064C88.1807 21.1158 87.4544 20.7205 86.6364 20.7205C86.1005 20.7205 85.6845 20.8264 85.3883 21.0382C85.1063 21.2358 84.9652 21.5394 84.9652 21.9488C84.9652 22.3864 85.1556 22.7182 85.5364 22.9441C85.9313 23.17 86.5448 23.4029 87.3769 23.6429C88.1666 23.8547 88.8154 24.0806 89.3231 24.3206C89.8449 24.5465 90.2821 24.8924 90.6347 25.3583C91.0014 25.8101 91.1847 26.4101 91.1847 27.1583C91.1847 28.3301 90.7616 29.2337 89.9154 29.869C89.0833 30.4902 87.8846 30.8008 86.3191 30.8008Z" fill="white"/>
<path d="M98.2902 30.8008C94.3977 30.8008 92.4515 28.7678 92.4515 24.7018C92.4515 22.8382 92.9522 21.377 93.9535 20.3181C94.9548 19.2593 96.3369 18.7299 98.0998 18.7299C99.4819 18.7299 100.617 19.0758 101.506 19.7675C102.408 20.4452 102.937 21.3699 103.092 22.5417C102.274 23.0359 101.597 23.2829 101.061 23.2829C100.836 23.2829 100.645 23.2123 100.49 23.0712C100.349 22.93 100.229 22.7041 100.131 22.3935C99.9191 21.8005 99.6582 21.3841 99.3479 21.1441C99.0376 20.8899 98.6216 20.7629 98.0998 20.7629C97.31 20.7629 96.6965 21.1017 96.2593 21.7794C95.8362 22.457 95.6247 23.4312 95.6247 24.7018C95.6247 26.0712 95.8362 27.0807 96.2593 27.7301C96.6965 28.3654 97.3735 28.6831 98.2902 28.6831C98.9248 28.6831 99.4255 28.4713 99.7922 28.0478C100.159 27.6101 100.434 26.9183 100.617 25.9724C101.393 25.9724 101.95 26.1136 102.288 26.396C102.627 26.6783 102.796 27.1372 102.796 27.7725C102.796 28.309 102.585 28.8102 102.161 29.276C101.752 29.7419 101.202 30.1161 100.511 30.3984C99.8204 30.6667 99.08 30.8008 98.2902 30.8008Z" fill="white"/>
<path d="M110.034 30.8008C108.328 30.8008 107.002 30.2714 106.057 29.2125C105.126 28.1537 104.661 26.6642 104.661 24.7442C104.661 22.8241 105.126 21.3417 106.057 20.297C107.002 19.2522 108.328 18.7299 110.034 18.7299C111.741 18.7299 113.059 19.2522 113.99 20.297C114.935 21.3417 115.407 22.8241 115.407 24.7442C115.407 26.6642 114.935 28.1537 113.99 29.2125C113.059 30.2714 111.741 30.8008 110.034 30.8008ZM110.034 28.7678C110.81 28.7678 111.367 28.4501 111.705 27.8148C112.058 27.1795 112.234 26.156 112.234 24.7442C112.234 23.3465 112.058 22.337 111.705 21.7158C111.367 21.0805 110.81 20.7629 110.034 20.7629C109.258 20.7629 108.694 21.0735 108.342 21.6947C108.003 22.3158 107.834 23.3323 107.834 24.7442C107.834 26.156 108.003 27.1795 108.342 27.8148C108.694 28.4501 109.258 28.7678 110.034 28.7678Z" fill="white"/>
<g clip-path="url(#clip0_1_119)">
<path d="M38.3406 18.8234C38.3406 29.2183 29.9206 37.6434 19.5365 37.6434C15.4814 37.6434 11.7255 36.3573 8.6525 34.1726C8.14914 33.8132 7.66337 33.4291 7.1952 33.0239C3.23515 29.5742 0.732391 24.4895 0.732391 18.8234C0.732391 8.42501 9.15235 -0.00012207 19.5365 -0.00012207C29.9206 -0.00012207 38.3406 8.42501 38.3406 18.8234Z" fill="white"/>
<path d="M22.0884 16.6497C22.0145 16.4877 21.8596 16.3502 21.6308 16.2375C21.3985 16.1247 21.1239 16.0472 20.8036 16.0049C20.4833 15.9626 20.1841 15.9978 19.9025 16.1106C19.7969 16.1494 19.6279 16.2798 19.3885 16.4982C19.1457 16.7202 18.857 17.0127 18.5191 17.3756C18.1812 17.7386 17.794 18.1614 17.361 18.6477C16.928 19.1305 16.4739 19.6591 15.9952 20.2264C15.513 20.7972 15.0166 21.4033 14.5062 22.0447C13.9923 22.6825 13.4784 23.3379 12.9609 24.0074C12.2745 24.1554 11.5881 24.3281 10.9087 24.5148C10.2259 24.7016 9.57816 24.906 8.96919 25.1209C8.35671 25.3394 7.80054 25.5649 7.29717 25.801C6.7938 26.0371 6.38548 26.2802 6.07571 26.534C5.93491 26.6467 5.80819 26.7877 5.69555 26.9568C5.58291 27.126 5.49843 27.2986 5.44211 27.4678C5.38578 27.6369 5.36466 27.7955 5.37874 27.947C5.39282 28.0985 5.45619 28.2113 5.56883 28.2853C5.68147 28.3593 5.84691 28.3875 6.06867 28.3699C6.29044 28.3522 6.57908 28.2536 6.93461 28.0739C7.36757 27.8589 7.95542 27.6087 8.69111 27.3303C9.43032 27.0555 10.2435 26.7701 11.127 26.4776C10.6483 27.1471 10.1871 27.8025 9.75065 28.4474C9.31416 29.0922 8.91991 29.7089 8.57143 30.2903C8.22646 30.8753 7.92374 31.4179 7.6703 31.9218C7.46613 32.3271 7.30773 32.6935 7.19509 33.0248C7.66326 33.43 8.14902 33.8141 8.65239 34.1735C8.66647 34.1453 8.67351 34.1171 8.68407 34.089C8.82839 33.6661 9.07832 33.1375 9.44088 32.5068C9.80345 31.8795 10.2399 31.1854 10.7539 30.4313C11.2643 29.6807 11.8345 28.8843 12.4611 28.0527C13.0841 27.2176 13.7318 26.3789 14.4006 25.5332C15.2842 25.3042 16.1043 25.135 16.8611 25.0152C17.618 24.8989 18.2269 24.8637 18.6881 24.9095C18.9239 24.9377 19.0964 24.8778 19.202 24.7263C19.3111 24.5747 19.3533 24.4021 19.3217 24.2047C19.2935 24.0074 19.1949 23.8171 19.0189 23.6374C18.8465 23.4612 18.5895 23.3626 18.2516 23.3414C17.6954 23.3132 16.9632 23.3555 16.0515 23.4683C16.7168 22.6508 17.368 21.8755 18.0052 21.1461C18.6388 20.4167 19.2161 19.7648 19.7405 19.1904C20.2615 18.616 20.7086 18.1438 21.0782 17.7703C21.4513 17.4003 21.7118 17.1713 21.8631 17.0867C22.0884 16.9528 22.1623 16.8083 22.0884 16.6497ZM36.1827 14.162C36.144 14.0034 36.0525 13.8272 35.9081 13.6334C35.7603 13.4396 35.5843 13.2634 35.3731 13.1013C35.1584 12.9427 34.9612 12.8582 34.7712 12.8476C33.7926 12.8123 32.7084 12.7983 31.5116 12.8123C30.3183 12.8264 29.0616 12.8723 27.7451 12.9463C26.4286 13.0238 25.0699 13.1295 23.6689 13.2669C22.2679 13.4008 20.8705 13.577 19.4801 13.7884C18.0861 13.9999 16.7168 14.2465 15.3722 14.5284C14.0275 14.8103 12.7497 15.138 11.5353 15.5045C10.3209 15.871 9.20152 16.2833 8.17014 16.7378C7.14229 17.1959 6.24468 17.6998 5.48435 18.2495C4.7205 18.8028 4.11153 19.4018 3.65744 20.0502C3.19983 20.7021 2.94287 21.4033 2.88655 22.1574C2.85839 22.5521 2.91823 22.915 3.06255 23.2427C3.21039 23.574 3.40048 23.8453 3.64336 24.0638C3.88272 24.2787 4.15377 24.4338 4.45297 24.5219C4.7557 24.61 5.04434 24.617 5.32946 24.543C5.65683 24.4479 5.82931 24.321 5.84339 24.1554C5.85747 23.9898 5.75187 23.8524 5.52659 23.7361C5.41394 23.6797 5.30482 23.6022 5.19922 23.4965C5.09714 23.3943 5.01618 23.2709 4.95986 23.1229C4.90354 22.9785 4.87538 22.8199 4.87538 22.6508C4.87538 22.4816 4.92466 22.3019 5.01618 22.1151C5.41394 21.3399 6.06515 20.6105 6.97333 19.9233C7.87798 19.2362 9.01496 18.6054 10.3772 18.0311C11.743 17.4567 13.32 16.9457 15.1117 16.4912C16.9034 16.0401 18.8852 15.656 21.05 15.3424C23.2184 15.0253 25.5557 14.7892 28.0619 14.6271C30.5682 14.4685 33.2188 14.3945 36.0137 14.4016C36.1651 14.4016 36.2214 14.324 36.1827 14.162Z" fill="black"/>
</g>
<defs>
<clipPath id="clip0_1_119">
<rect width="37.6082" height="37.6435" fill="white" transform="translate(0.732391 -0.00012207)"/>
</clipPath>
</defs>
</svg>
