<svg width="40" height="40" viewBox="0 0 40 40" fill="none" xmlns="http://www.w3.org/2000/svg">
<path d="M21.1221 30.4819C21.1221 33.9482 23.9304 36.7566 27.3967 36.7566H40.0002C40.0002 33.2903 37.1919 30.4819 33.7256 30.4819H21.1221Z" fill="#3097F5"/>
<path d="M21.1218 21.0405H26.847C26.847 23.7607 28.3868 26.1281 30.6389 27.3152H27.3965C23.9301 27.3152 21.1218 24.5068 21.1218 21.0405Z" fill="#3097F5"/>
<path d="M18.8781 9.36178C18.8781 5.89548 16.0698 3.08716 12.6035 3.08716H0C0 6.55347 2.80832 9.36178 6.27463 9.36178H18.8781Z" fill="#3097F5"/>
<path d="M18.878 18.8037H13.1529C13.1529 16.0835 11.613 13.7161 9.36096 12.5291H12.6034C16.0697 12.5291 18.878 15.3374 18.878 18.8037Z" fill="#3097F5"/>
<path d="M9.43637 21.1213V33.7249C9.43637 37.1912 6.62805 39.9995 3.16174 39.9995V27.396C3.16174 23.9297 5.97006 21.1213 9.43637 21.1213Z" fill="#3097F5"/>
<path d="M18.8782 21.1155V26.8407C16.1581 26.8407 13.7907 28.3805 12.6036 30.6326V27.3901C12.6036 23.9306 15.4187 21.1155 18.8782 21.1155Z" fill="#3097F5"/>
<path d="M30.5772 18.8781C34.0435 18.8781 36.8518 16.0698 36.8518 12.6035V0C33.3855 0 30.5772 2.80832 30.5772 6.27463V18.8781Z" fill="#3097F5"/>
<path d="M21.1287 18.8779V13.1527C23.8488 13.1527 26.2162 11.6129 27.4033 9.36084V12.6033C27.4101 16.0696 24.595 18.8779 21.1287 18.8779Z" fill="#3097F5"/>
</svg>
