<svg width="56" height="24" viewBox="0 0 56 24" fill="none" xmlns="http://www.w3.org/2000/svg">
<path d="M0 0H6.00884C8.16102 0 9.84192 0.5 11.0515 1.5C12.2612 2.492 12.866 3.836 12.866 5.532C12.866 6.74 12.5479 7.784 11.9116 8.664C11.2833 9.536 10.3918 10.18 9.23711 10.596L13.4315 18H9.39028L5.47864 11.1H3.6053V18H0V0ZM5.58468 8.052C6.77074 8.052 7.6701 7.828 8.28277 7.38C8.90329 6.932 9.21355 6.32 9.21355 5.544C9.21355 4.768 8.90329 4.16 8.28277 3.72C7.6701 3.28 6.77074 3.06 5.58468 3.06H3.6053V8.052H5.58468Z" fill="black"/>
<path d="M17.6848 13.032C17.8969 13.696 18.2857 14.236 18.8513 14.652C19.4246 15.068 20.0923 15.276 20.8542 15.276C21.6711 15.276 22.3466 15.144 22.8807 14.88C23.4227 14.608 23.9136 14.26 24.3535 13.836L26.4035 16.332C25.4924 17.06 24.5891 17.56 23.6937 17.832C22.8061 18.104 21.9539 18.24 21.137 18.24C19.8331 18.24 18.6824 17.972 17.6848 17.436C16.6873 16.892 15.9057 16.148 15.3402 15.204C14.7747 14.252 14.4919 13.172 14.4919 11.964C14.4919 10.772 14.7629 9.712 15.3049 8.784C15.8468 7.848 16.5852 7.112 17.5199 6.576C18.4624 6.032 19.5307 5.76 20.7246 5.76C21.9107 5.76 22.9632 6.028 23.8822 6.564C24.809 7.1 25.5395 7.836 26.0736 8.772C26.6078 9.708 26.8748 10.78 26.8748 11.988V13.032H17.6848ZM23.3873 11.112C23.2224 10.408 22.8846 9.84 22.3741 9.408C21.8635 8.976 21.2509 8.76 20.5361 8.76C19.8134 8.76 19.1851 8.98 18.651 9.42C18.1247 9.86 17.7791 10.424 17.6141 11.112H23.3873Z" fill="black"/>
<path d="M29.1252 6H32.3299L32.4124 7.296C32.9072 6.808 33.4845 6.432 34.1443 6.168C34.8041 5.896 35.515 5.76 36.2769 5.76C37.3844 5.76 38.3702 6.032 39.2342 6.576C40.0982 7.112 40.7776 7.852 41.2725 8.796C41.7673 9.732 42.0147 10.8 42.0147 12C42.0147 13.2 41.7673 14.272 41.2725 15.216C40.7776 16.152 40.0982 16.892 39.2342 17.436C38.3702 17.972 37.3844 18.24 36.2769 18.24C35.5385 18.24 34.8512 18.116 34.215 17.868C33.5788 17.612 33.0133 17.26 32.5184 16.812V24H29.1252V6ZM35.511 8.76C34.647 8.76 33.9323 9.068 33.3667 9.684C32.8012 10.3 32.5184 11.072 32.5184 12C32.5184 12.928 32.8012 13.7 33.3667 14.316C33.9323 14.932 34.647 15.24 35.511 15.24C36.3751 15.24 37.0898 14.932 37.6554 14.316C38.2209 13.7 38.5037 12.928 38.5037 12C38.5037 11.072 38.2209 10.3 37.6554 9.684C37.0898 9.068 36.3751 8.76 35.511 8.76Z" fill="black"/>
<path d="M43.4286 12C43.4286 10.8 43.6996 9.732 44.2415 8.796C44.7914 7.852 45.5376 7.112 46.4801 6.576C47.4305 6.032 48.5106 5.76 49.7202 5.76C50.9298 5.76 52.0059 6.032 52.9485 6.576C53.891 7.112 54.6333 7.852 55.1753 8.796C55.7251 9.732 56 10.8 56 12C56 13.2 55.7251 14.272 55.1753 15.216C54.6333 16.152 53.891 16.892 52.9485 17.436C52.0059 17.972 50.9298 18.24 49.7202 18.24C48.5106 18.24 47.4305 17.972 46.4801 17.436C45.5376 16.892 44.7914 16.152 44.2415 15.216C43.6996 14.272 43.4286 13.2 43.4286 12ZM46.7275 12C46.7275 12.928 47.0103 13.7 47.5758 14.316C48.1414 14.932 48.8562 15.24 49.7202 15.24C50.5842 15.24 51.299 14.932 51.8645 14.316C52.43 13.7 52.7128 12.928 52.7128 12C52.7128 11.072 52.43 10.3 51.8645 9.684C51.299 9.068 50.5842 8.76 49.7202 8.76C48.8562 8.76 48.1414 9.068 47.5758 9.684C47.0103 10.3 46.7275 11.072 46.7275 12Z" fill="black"/>
</svg>
