<svg width="106" height="24" viewBox="0 0 106 24" fill="none" xmlns="http://www.w3.org/2000/svg">
<path d="M22.6704 10.3394L16.1168 6.52867L20.4733 4.01302L21.7791 3.25554L27.0082 0.235413L37.7822 6.50608L37.8047 14.0944L27.027 7.82376L22.6742 10.3394H22.6704Z" fill="white"/>
<path d="M20.9508 16.2329L26.8952 12.7979L26.9178 20.387L20.9734 23.8212L0.196411 11.7362V4.15912L20.9508 16.2329Z" fill="white"/>
<path d="M46.1994 20.8241V5.31358H49.1743V11.4868C49.9938 10.6802 51.0129 10.277 52.2318 10.277C54.8899 10.277 56.219 11.9521 56.219 15.3024V20.8241H53.2441V15.2817C53.2441 14.5027 53.0788 13.9064 52.7483 13.4928C52.4246 13.0723 51.9598 12.862 51.3538 12.862C50.7065 12.862 50.1797 13.0895 49.7734 13.5445C49.374 13.9926 49.1743 14.5751 49.1743 15.292V20.8241H46.1994Z" fill="white"/>
<path d="M56.9172 15.6539C56.9172 14.6199 57.1548 13.6996 57.63 12.8931C58.112 12.0796 58.7662 11.442 59.5926 10.9801C60.4258 10.5113 61.3727 10.277 62.4331 10.277C63.4936 10.277 64.4371 10.5113 65.2634 10.9801C66.0898 11.442 66.7405 12.0796 67.2157 12.8931C67.6977 13.6996 67.9387 14.6199 67.9387 15.6539C67.9387 16.688 67.6977 17.6117 67.2157 18.4252C66.7405 19.2317 66.0898 19.8694 65.2634 20.3381C64.4371 20.8 63.4936 21.0309 62.4331 21.0309C61.3727 21.0309 60.4258 20.8 59.5926 20.3381C58.7662 19.8694 58.112 19.2317 57.63 18.4252C57.1548 17.6117 56.9172 16.688 56.9172 15.6539ZM59.8095 15.6539C59.8095 16.4536 60.0574 17.1188 60.5532 17.6496C61.049 18.1804 61.6757 18.4458 62.4331 18.4458C63.1906 18.4458 63.8173 18.1804 64.3131 17.6496C64.8089 17.1188 65.0568 16.4536 65.0568 15.6539C65.0568 14.8543 64.8089 14.1891 64.3131 13.6583C63.8173 13.1274 63.1906 12.862 62.4331 12.862C61.6757 12.862 61.049 13.1274 60.5532 13.6583C60.0574 14.1891 59.8095 14.8543 59.8095 15.6539Z" fill="white"/>
<path d="M71.8288 4.89996V20.8241H68.8539V4.89996H71.8288Z" fill="white"/>
<path d="M76.4316 4.89996V20.8241H73.4567V4.89996H76.4316Z" fill="white"/>
<path d="M77.3364 15.6539C77.3364 14.6199 77.574 13.6996 78.0492 12.8931C78.5312 12.0796 79.1854 11.442 80.0117 10.9801C80.845 10.5113 81.7919 10.277 82.8523 10.277C83.9128 10.277 84.8563 10.5113 85.6826 10.9801C86.509 11.442 87.1597 12.0796 87.6349 12.8931C88.1169 13.6996 88.3579 14.6199 88.3579 15.6539C88.3579 16.688 88.1169 17.6117 87.6349 18.4252C87.1597 19.2317 86.509 19.8694 85.6826 20.3381C84.8563 20.8 83.9128 21.0309 82.8523 21.0309C81.7919 21.0309 80.845 20.8 80.0117 20.3381C79.1854 19.8694 78.5312 19.2317 78.0492 18.4252C77.574 17.6117 77.3364 16.688 77.3364 15.6539ZM80.2287 15.6539C80.2287 16.4536 80.4766 17.1188 80.9724 17.6496C81.4682 18.1804 82.0949 18.4458 82.8523 18.4458C83.6098 18.4458 84.2365 18.1804 84.7323 17.6496C85.2281 17.1188 85.476 16.4536 85.476 15.6539C85.476 14.8543 85.2281 14.1891 84.7323 13.6583C84.2365 13.1274 83.6098 12.862 82.8523 12.862C82.0949 12.862 81.4682 13.1274 80.9724 13.6583C80.4766 14.1891 80.2287 14.8543 80.2287 15.6539Z" fill="white"/>
<path d="M88.2402 10.4838H91.37L93.0537 15.8504C93.1363 16.1193 93.2121 16.3743 93.2809 16.6156C93.3567 16.8569 93.4255 17.0878 93.4875 17.3084C93.5426 17.0878 93.6011 16.8569 93.6631 16.6156C93.732 16.3743 93.8043 16.1193 93.88 15.8504L95.5637 10.4838H98.5283L100.212 15.8504C100.295 16.1193 100.37 16.3743 100.439 16.6156C100.515 16.8569 100.584 17.0913 100.646 17.3187C100.701 17.0913 100.759 16.8569 100.821 16.6156C100.89 16.3743 100.963 16.1193 101.038 15.8504L102.722 10.4838H105.666L102.206 20.8241H99.2617C98.8623 19.6109 98.4801 18.4183 98.1151 17.2464C97.757 16.0745 97.4196 14.8922 97.1028 13.6996C96.8067 14.906 96.4658 16.102 96.0802 17.2877C95.6946 18.4734 95.2779 19.6522 94.8303 20.8241H91.7005L88.2402 10.4838Z" fill="white"/>
</svg>
