<svg width="90" height="38" viewBox="0 0 90 38" fill="none" xmlns="http://www.w3.org/2000/svg">
<path d="M51.8638 32.3537L49.0714 20.4521V32.3537H46.5117V17.5297H50.7215L53.5562 29.6642V17.5297H56.0736V32.3537H51.8638Z" fill="white"/>
<path d="M59.031 32.3537V17.5297H66.6043V19.8168H61.9292V23.5652H66.0755V25.8311H61.9292V30.0665H66.6043V32.3537H59.031Z" fill="white"/>
<path d="M77.7643 22.0192C77.7643 23.191 77.588 24.1158 77.2354 24.7934C76.8828 25.457 76.3892 25.9511 75.7546 26.2758L78.3989 32.3537H75.1199L72.8775 26.7629H72.0313V32.3537H69.1331V17.5297C69.5421 17.5015 69.9723 17.4662 70.4236 17.4238C70.8044 17.3956 71.2204 17.3744 71.6717 17.3603C72.1371 17.3321 72.5884 17.3179 73.0256 17.3179C73.9423 17.3179 74.7039 17.4168 75.3103 17.6144C75.9167 17.7979 76.4033 18.0874 76.77 18.4827C77.1367 18.878 77.3905 19.3721 77.5316 19.9651C77.6867 20.5439 77.7643 21.2286 77.7643 22.0192ZM74.8238 22.1675C74.8238 21.3345 74.725 20.7416 74.5276 20.3886C74.3301 20.0357 73.9282 19.8592 73.3218 19.8592C72.9833 19.8592 72.6871 19.8804 72.4333 19.9227C72.2781 19.9509 72.1442 19.9721 72.0313 19.9862V24.264H73.3641C73.8013 24.264 74.1539 24.0875 74.4218 23.7346C74.6898 23.3816 74.8238 22.8593 74.8238 22.1675Z" fill="white"/>
<path d="M86.7431 24.8781C86.7431 23.7911 86.7078 22.9087 86.6373 22.231C86.5668 21.5392 86.454 21.0027 86.2988 20.6216C86.1437 20.2263 85.9392 19.958 85.6854 19.8168C85.4315 19.6756 85.1142 19.6051 84.7334 19.6051C84.3526 19.6051 84.0353 19.6756 83.7814 19.8168C83.5276 19.958 83.3231 20.2263 83.1679 20.6216C83.0128 21.0027 82.9 21.5392 82.8295 22.231C82.759 22.9087 82.7237 23.7911 82.7237 24.8781C82.7237 25.9511 82.759 26.8335 82.8295 27.5253C82.9 28.2171 83.0128 28.7677 83.1679 29.1771C83.3231 29.5865 83.5276 29.8759 83.7814 30.0454C84.0353 30.2007 84.3526 30.2783 84.7334 30.2783C85.1142 30.2783 85.4315 30.2007 85.6854 30.0454C85.9392 29.8759 86.1437 29.5865 86.2988 29.1771C86.454 28.7677 86.5668 28.2171 86.6373 27.5253C86.7078 26.8335 86.7431 25.9511 86.7431 24.8781ZM89.6836 24.7723C89.6836 26.0711 89.6201 27.2076 89.4932 28.1818C89.3804 29.1559 89.1406 29.9677 88.7739 30.6171C88.4214 31.2666 87.9207 31.7536 87.272 32.0784C86.6232 32.4031 85.777 32.5654 84.7334 32.5654C83.6898 32.5654 82.8436 32.4031 82.1948 32.0784C81.5461 31.7536 81.0384 31.2666 80.6717 30.6171C80.3191 29.9677 80.0794 29.1559 79.9524 28.1818C79.8396 27.2076 79.7832 26.0711 79.7832 24.7723C79.7832 23.5299 79.8467 22.4428 79.9736 21.511C80.1146 20.5792 80.3685 19.8027 80.7352 19.1815C81.1018 18.5603 81.6025 18.0944 82.2371 17.7838C82.8859 17.4732 83.718 17.3179 84.7334 17.3179C85.7488 17.3179 86.5739 17.4732 87.2085 17.7838C87.8572 18.0944 88.365 18.5603 88.7316 19.1815C89.0983 19.8027 89.3451 20.5792 89.472 21.511C89.6131 22.4428 89.6836 23.5299 89.6836 24.7723Z" fill="white"/>
<g clip-path="url(#clip0_1_107)">
<path d="M35.8925 17.6727C35.8925 20.344 34.8751 23.0153 32.8382 25.0522L21.7823 36.1195C19.7475 38.1564 16.4472 38.1564 14.4104 36.1195L3.48376 25.1816C-0.604592 21.089 -0.704664 14.2918 3.41496 10.2347C5.4435 8.23534 8.08498 7.23776 10.7244 7.23776C13.393 7.23776 16.0615 8.25621 18.0963 10.2952C22.168 6.21932 28.7665 6.21932 32.8382 10.2952C34.8751 12.3342 35.8925 15.0034 35.8925 17.6727Z" fill="#F3223C"/>
<path opacity="0.11" d="M12.1421 33.8495C12.1421 33.8495 11.1768 32.0881 11.3102 30.2536C11.3102 30.2536 14.1685 38.393 24.4009 33.5636L15.5112 29.3144L12.5632 24.0363L10.3637 25.0506L9.61525 30.12L10.0176 31.8189L12.1421 33.8495Z" fill="black"/>
<path opacity="0.11" d="M13.4326 10.5205C13.4326 10.5205 14.8732 13.4048 14.0351 16.3893C13.197 19.3738 11.5855 32.952 22.2098 29.0013C22.2098 29.0013 15.2714 28.4795 16.7141 22.4417C18.1318 16.525 17.596 13.7033 13.4326 10.5205Z" fill="black"/>
<path d="M11.1017 33.4542C11.1017 33.4542 4.92019 28.9797 9.33795 23.2864C15.0483 15.9277 12.6278 10.9899 12.6278 10.9899C12.6278 10.9899 16.983 14.8279 15.7467 20.1163C14.6584 24.7744 16.0553 27.7525 18.3694 28.0572C21.1277 28.4225 24.3592 22.0133 19.2617 14.6067C14.1643 7.19996 18.1088 -0.00012207 18.1088 -0.00012207C18.1088 -0.00012207 17.8691 6.3756 25.6789 14.8467C33.8139 23.6725 28.1035 35.274 19.145 34.4121C11.5583 33.6837 11.2706 26.2437 11.2706 26.2437C11.2706 26.2437 9.04816 30.0962 11.1017 33.4542Z" fill="white"/>
<path d="M19.1452 34.4101C11.5585 33.6817 11.2687 26.2458 11.2687 26.2458C11.2687 26.2458 9.04837 30.0963 11.1019 33.4521C11.1019 33.4521 10.5765 33.0723 9.93859 32.392C7.62443 27.3477 12.013 22.5623 12.013 22.5623C11.8671 26.6089 14.8776 32.2751 20.6171 30.6097C26.6131 28.8691 25.9188 19.0854 20.9653 13.1688C16.6684 8.03689 17.763 2.04517 18.132 0.546722C18.2675 2.25805 19.2161 7.83446 25.677 14.8467C33.812 23.6726 28.1016 35.2741 19.1452 34.4101Z" fill="url(#paint0_linear_1_107)"/>
<path opacity="0.11" d="M28.0285 29.8675C28.6081 28.9075 29.0418 27.8369 29.3045 26.6952C29.3378 26.5471 29.3691 26.3989 29.3962 26.2486C29.6234 25.0298 29.6568 23.7379 29.465 22.4168C29.4358 22.2227 29.4024 22.0265 29.3649 21.8324C29.3253 21.6384 29.2836 21.4422 29.2357 21.246C29.1877 21.0498 29.1335 20.8536 29.0751 20.6574C29.0188 20.4613 28.9542 20.2651 28.8854 20.0689C28.8854 20.0668 28.8854 20.0668 28.8854 20.0668C28.7832 19.7725 28.6665 19.4783 28.5393 19.1819C28.4142 18.8876 28.2746 18.5934 28.1224 18.3012C28.1224 18.3012 28.1203 18.3012 28.1203 18.2991C27.9702 18.0048 27.8055 17.7126 27.6283 17.4225C27.5094 17.2264 27.3864 17.0323 27.2551 16.8402C26.9965 16.4541 26.7151 16.0722 26.4086 15.6945C26.1793 15.4085 25.9354 15.1268 25.6769 14.8471C25.3745 14.5174 25.0827 14.1939 24.8054 13.8704C24.7116 13.764 24.6198 13.6554 24.5302 13.549C23.9861 12.9104 23.4899 12.2842 23.0354 11.6748C22.9582 11.5726 22.8832 11.4724 22.8102 11.3701C22.7372 11.2699 22.6643 11.1698 22.5934 11.0696C22.5225 10.9694 22.4516 10.8713 22.3828 10.7711C22.314 10.673 22.2473 10.575 22.1785 10.4769C22.1118 10.3788 22.0472 10.2807 21.9825 10.1847C21.8533 9.99059 21.7282 9.79858 21.6073 9.60866C21.6031 9.6024 21.5989 9.59614 21.5948 9.58988C21.478 9.40622 21.3654 9.22464 21.257 9.04516C21.2007 8.95124 21.1465 8.85941 21.0923 8.76758C21.0339 8.6674 20.9735 8.56723 20.9172 8.46914C20.9443 8.38357 20.9568 8.33765 20.9839 8.25C21.4759 8.01625 21.9804 7.82215 22.4954 7.6698C23.2397 9.22673 23.3293 10.433 28.0431 15.1497C31.9293 19.04 32.0064 25.8855 28.0285 29.8675Z" fill="black"/>
</g>
<defs>
<linearGradient id="paint0_linear_1_107" x1="19.003" y1="0.250329" x2="19.5835" y2="36.322" gradientUnits="userSpaceOnUse">
<stop stop-color="#E0E0E0"/>
<stop offset="0.5705" stop-color="#E2E2E2" stop-opacity="0.4295"/>
<stop offset="0.776" stop-color="#E9E9E9" stop-opacity="0.224"/>
<stop offset="0.922" stop-color="#F5F5F5" stop-opacity="0.078"/>
<stop offset="1" stop-color="white" stop-opacity="0"/>
</linearGradient>
<clipPath id="clip0_1_107">
<rect width="35.5213" height="37.647" fill="white" transform="translate(0.371155 -0.00012207)"/>
</clipPath>
</defs>
</svg>
