<svg width="32" height="22" viewBox="0 0 32 22" fill="none" xmlns="http://www.w3.org/2000/svg">
<path d="M28.5149 0.789307L26.8387 2.46551C28.4409 4.07134 29.3406 6.2471 29.3406 8.51547C29.3406 10.7838 28.4409 12.9596 26.8387 14.5654L28.5149 16.2369C30.56 14.1866 31.7084 11.4089 31.7084 8.5131C31.7084 5.61726 30.56 2.83961 28.5149 0.789307Z" fill="white"/>
<path d="M25.5211 3.76733L23.8449 5.44354C24.6576 6.25904 25.1139 7.36342 25.1139 8.51473C25.1139 9.66604 24.6576 10.7704 23.8449 11.5859L25.5211 13.2621C26.7782 12.002 27.4841 10.2947 27.4841 8.51473C27.4841 6.73479 26.7782 5.0275 25.5211 3.76733Z" fill="white"/>
<path d="M19.0913 3.31382V1.21265L8.86981 4.13534H0.101746V12.9034H2.06706L4.99922 20.3918C5.11351 20.6877 5.31548 20.9415 5.57806 21.1194C5.84065 21.2973 6.15132 21.3907 6.46847 21.3871H8.63284C8.86684 21.389 9.09835 21.3389 9.31063 21.2405C9.52291 21.142 9.71067 20.9976 9.86033 20.8177C10.01 20.6378 10.1178 20.4269 10.176 20.2003C10.2342 19.9736 10.2413 19.7368 10.1969 19.5071L8.37375 12.9034H8.86981L19.0913 15.8261V13.7091C19.013 12.2065 19.4413 10.7211 20.3078 9.49096C20.5325 9.21399 20.6552 8.86815 20.6552 8.51147C20.6552 8.15478 20.5325 7.80895 20.3078 7.53197C19.4413 6.30184 19.013 4.81643 19.0913 3.31382ZM7.68494 19.0174H7.00561L4.62638 12.9034H5.96292L7.68494 19.0174Z" fill="white"/>
</svg>
