<svg width="102" height="60" viewBox="0 0 102 60" fill="none" xmlns="http://www.w3.org/2000/svg">
<path d="M2.33315 44.2307L2.42612 45.668C2.89438 45.1579 3.45561 44.7581 4.10981 44.4686C4.77089 44.1721 5.49051 44.0239 6.26866 44.0239C7.27405 44.0239 8.16927 44.2583 8.95431 44.7271C9.73934 45.1889 10.3557 45.8266 10.8033 46.64C11.2578 47.4466 11.485 48.3669 11.485 49.4009C11.485 50.4349 11.2578 51.3587 10.8033 52.1721C10.3557 52.9787 9.73934 53.6163 8.95431 54.0851C8.16927 54.547 7.27405 54.7779 6.26866 54.7779C5.51117 54.7779 4.80877 54.64 4.16146 54.3643C3.52103 54.0885 2.96669 53.7059 2.49842 53.2165V59.7413H0.794067V44.2307H2.33315ZM6.11372 53.2268C6.80923 53.2268 7.429 53.0614 7.97301 52.7305C8.51703 52.3996 8.94398 51.9446 9.25386 51.3656C9.57063 50.7865 9.72901 50.1316 9.72901 49.4009C9.72901 48.6633 9.57063 48.0084 9.25386 47.4362C8.94398 46.8572 8.51703 46.4022 7.97301 46.0713C7.429 45.7404 6.80923 45.575 6.11372 45.575C5.4182 45.575 4.79844 45.7404 4.25442 46.0713C3.71041 46.4022 3.28001 46.8572 2.96324 47.4362C2.65336 48.0084 2.49842 48.6633 2.49842 49.4009C2.49842 50.1316 2.65336 50.7865 2.96324 51.3656C3.28001 51.9446 3.71041 52.3996 4.25442 52.7305C4.79844 53.0614 5.4182 53.2268 6.11372 53.2268Z" fill="white"/>
<path d="M13.02 54.5711V44.2307H14.559L14.6623 45.8542C15.0067 45.3027 15.4508 44.8615 15.9948 44.5306C16.5389 44.1928 17.1896 44.0239 17.9471 44.0239C18.257 44.0239 18.5806 44.0549 18.9181 44.117L18.6702 45.6991C18.3327 45.6163 18.016 45.575 17.7198 45.575C16.7695 45.575 16.0327 45.9265 15.5094 46.6297C14.986 47.3259 14.7243 48.1911 14.7243 49.2251V54.5711H13.02Z" fill="white"/>
<path d="M18.9036 49.4009C18.9036 48.3669 19.1343 47.4466 19.5957 46.64C20.0639 45.8266 20.7009 45.1889 21.5066 44.7271C22.3192 44.2583 23.242 44.0239 24.2749 44.0239C25.3078 44.0239 26.2272 44.2583 27.0329 44.7271C27.8454 45.1889 28.4824 45.8266 28.9438 46.64C29.4121 47.4466 29.6462 48.3669 29.6462 49.4009C29.6462 50.4349 29.4121 51.3587 28.9438 52.1721C28.4824 52.9787 27.8454 53.6163 27.0329 54.0851C26.2272 54.547 25.3078 54.7779 24.2749 54.7779C23.242 54.7779 22.3192 54.547 21.5066 54.0851C20.7009 53.6163 20.0639 52.9787 19.5957 52.1721C19.1343 51.3587 18.9036 50.4349 18.9036 49.4009ZM20.6596 49.4009C20.6596 50.1316 20.8145 50.7865 21.1244 51.3656C21.4412 51.9446 21.8716 52.3996 22.4156 52.7305C22.9596 53.0614 23.5794 53.2268 24.2749 53.2268C24.9704 53.2268 25.5902 53.0614 26.1342 52.7305C26.6782 52.3996 27.1052 51.9446 27.415 51.3656C27.7318 50.7865 27.8902 50.1316 27.8902 49.4009C27.8902 48.6633 27.7318 48.0084 27.415 47.4362C27.1052 46.8572 26.6782 46.4022 26.1342 46.0713C25.5902 45.7404 24.9704 45.575 24.2749 45.575C23.5794 45.575 22.9596 45.7404 22.4156 46.0713C21.8716 46.4022 21.4412 46.8572 21.1244 47.4362C20.8145 48.0084 20.6596 48.6633 20.6596 49.4009Z" fill="white"/>
<path d="M32.6686 44.2307V49.8559C32.6686 50.8554 32.9371 51.6689 33.4743 52.2962C34.0183 52.9166 34.7241 53.2268 35.5918 53.2268C36.1771 53.2268 36.7005 53.0855 37.1619 52.8029C37.6233 52.5134 37.9882 52.1239 38.2568 51.6344C38.5254 51.1381 38.6596 50.5797 38.6596 49.9593V44.2307H40.364V54.5711H38.8249L38.7319 52.9993C38.3325 53.5577 37.8333 53.9955 37.2342 54.3126C36.642 54.6228 35.9809 54.7779 35.2509 54.7779C34.4177 54.7779 33.6774 54.578 33.0301 54.1781C32.3897 53.7714 31.8835 53.213 31.5117 52.503C31.1467 51.793 30.9642 50.9795 30.9642 50.0627V44.2307H32.6686Z" fill="white"/>
<path d="M47.105 44.0239C47.8625 44.0239 48.5649 44.1618 49.2122 44.4375C49.8595 44.7133 50.4138 45.0959 50.8752 45.5853V39.0606H52.5796V54.5711H51.0405L50.9475 53.1338C50.4861 53.6439 49.9249 54.0472 49.2638 54.3436C48.6027 54.6331 47.8831 54.7779 47.105 54.7779C46.1065 54.7779 45.2112 54.547 44.4193 54.0851C43.6343 53.6163 43.0145 52.9787 42.56 52.1721C42.1124 51.3587 41.8886 50.4349 41.8886 49.4009C41.8886 48.3669 42.1124 47.4466 42.56 46.64C43.0145 45.8266 43.6343 45.1889 44.4193 44.7271C45.2112 44.2583 46.1065 44.0239 47.105 44.0239ZM43.6446 49.4009C43.6446 50.1316 43.7996 50.7865 44.1094 51.3656C44.4262 51.9446 44.8566 52.3996 45.4006 52.7305C45.9446 53.0614 46.5644 53.2268 47.2599 53.2268C47.9554 53.2268 48.5752 53.0614 49.1192 52.7305C49.6632 52.3996 50.0902 51.9446 50.4001 51.3656C50.7168 50.7865 50.8752 50.1316 50.8752 49.4009C50.8752 48.6633 50.7168 48.0084 50.4001 47.4362C50.0902 46.8572 49.6632 46.4022 49.1192 46.0713C48.5752 45.7404 47.9554 45.575 47.2599 45.575C46.5644 45.575 45.9446 45.7404 45.4006 46.0713C44.8566 46.4022 44.4262 46.8572 44.1094 47.4362C43.7996 48.0084 43.6446 48.6633 43.6446 49.4009Z" fill="white"/>
<path d="M63.3387 53.2475C62.8566 53.7301 62.2885 54.1058 61.6343 54.3746C60.9801 54.6435 60.264 54.7779 59.4858 54.7779C58.4529 54.7779 57.5301 54.547 56.7175 54.0851C55.9118 53.6163 55.2749 52.9787 54.8066 52.1721C54.3452 51.3587 54.1145 50.4349 54.1145 49.4009C54.1145 48.3669 54.3452 47.4466 54.8066 46.64C55.2749 45.8266 55.9118 45.1889 56.7175 44.7271C57.5301 44.2583 58.4529 44.0239 59.4858 44.0239C60.264 44.0239 60.9801 44.1583 61.6343 44.4272C62.2885 44.696 62.8566 45.0683 63.3387 45.544L62.1508 46.7331C61.8271 46.3677 61.4381 46.0851 60.9836 45.8852C60.5291 45.6784 60.0298 45.575 59.4858 45.575C58.7903 45.575 58.1705 45.7404 57.6265 46.0713C57.0825 46.4022 56.6521 46.8572 56.3353 47.4362C56.0255 48.0084 55.8705 48.6633 55.8705 49.4009C55.8705 50.1316 56.0255 50.7865 56.3353 51.3656C56.6521 51.9446 57.0825 52.3996 57.6265 52.7305C58.1705 53.0614 58.7903 53.2268 59.4858 53.2268C60.0298 53.2268 60.5291 53.1234 60.9836 52.9166C61.4381 52.7098 61.8271 52.4272 62.1508 52.0687L63.3387 53.2475Z" fill="white"/>
<path d="M66.6296 38.6469V54.5711H64.8736V38.6469H66.6296Z" fill="white"/>
<path d="M68.1543 49.4009C68.1543 48.3669 68.3849 47.4466 68.8463 46.64C69.3146 45.8266 69.9516 45.1889 70.7573 44.7271C71.5699 44.2583 72.4926 44.0239 73.5256 44.0239C74.5585 44.0239 75.4778 44.2583 76.2835 44.7271C77.0961 45.1889 77.7331 45.8266 78.1944 46.64C78.6627 47.4466 78.8969 48.3669 78.8969 49.4009C78.8969 50.4349 78.6627 51.3587 78.1944 52.1721C77.7331 52.9787 77.0961 53.6163 76.2835 54.0851C75.4778 54.547 74.5585 54.7779 73.5256 54.7779C72.4926 54.7779 71.5699 54.547 70.7573 54.0851C69.9516 53.6163 69.3146 52.9787 68.8463 52.1721C68.3849 51.3587 68.1543 50.4349 68.1543 49.4009ZM69.9103 49.4009C69.9103 50.1316 70.0652 50.7865 70.3751 51.3656C70.6918 51.9446 71.1222 52.3996 71.6663 52.7305C72.2103 53.0614 72.83 53.2268 73.5256 53.2268C74.2211 53.2268 74.8408 53.0614 75.3848 52.7305C75.9289 52.3996 76.3558 51.9446 76.6657 51.3656C76.9825 50.7865 77.1408 50.1316 77.1408 49.4009C77.1408 48.6633 76.9825 48.0084 76.6657 47.4362C76.3558 46.8572 75.9289 46.4022 75.3848 46.0713C74.8408 45.7404 74.2211 45.575 73.5256 45.575C72.83 45.575 72.2103 45.7404 71.6663 46.0713C71.1222 46.4022 70.6918 46.8572 70.3751 47.4362C70.0652 48.0084 69.9103 48.6633 69.9103 49.4009Z" fill="white"/>
<path d="M81.9192 44.2307V49.8559C81.9192 50.8554 82.1878 51.6689 82.7249 52.2962C83.269 52.9166 83.9748 53.2268 84.8425 53.2268C85.4278 53.2268 85.9512 53.0855 86.4125 52.8029C86.8739 52.5134 87.2389 52.1239 87.5075 51.6344C87.776 51.1381 87.9103 50.5797 87.9103 49.9593V44.2307H89.6147V54.5711H88.0756L87.9826 52.9993C87.5832 53.5577 87.0839 53.9955 86.4848 54.3126C85.8926 54.6228 85.2315 54.7779 84.5016 54.7779C83.6684 54.7779 82.9281 54.578 82.2808 54.1781C81.6404 53.7714 81.1342 53.213 80.7623 52.503C80.3974 51.793 80.2149 50.9795 80.2149 50.0627V44.2307H81.9192Z" fill="white"/>
<path d="M96.3556 44.0239C97.1131 44.0239 97.8155 44.1618 98.4628 44.4375C99.1101 44.7133 99.6645 45.0959 100.126 45.5853V39.0606H101.83V54.5711H100.291L100.198 53.1338C99.7368 53.6439 99.1756 54.0472 98.5145 54.3436C97.8534 54.6331 97.1338 54.7779 96.3556 54.7779C95.3571 54.7779 94.4619 54.547 93.67 54.0851C92.8849 53.6163 92.2652 52.9787 91.8107 52.1721C91.3631 51.3587 91.1393 50.4349 91.1393 49.4009C91.1393 48.3669 91.3631 47.4466 91.8107 46.64C92.2652 45.8266 92.8849 45.1889 93.67 44.7271C94.4619 44.2583 95.3571 44.0239 96.3556 44.0239ZM92.8953 49.4009C92.8953 50.1316 93.0502 50.7865 93.3601 51.3656C93.6769 51.9446 94.1073 52.3996 94.6513 52.7305C95.1953 53.0614 95.8151 53.2268 96.5106 53.2268C97.2061 53.2268 97.8259 53.0614 98.3699 52.7305C98.9139 52.3996 99.3408 51.9446 99.6507 51.3656C99.9675 50.7865 100.126 50.1316 100.126 49.4009C100.126 48.6633 99.9675 48.0084 99.6507 47.4362C99.3408 46.8572 98.9139 46.4022 98.3699 46.0713C97.8259 45.7404 97.2061 45.575 96.5106 45.575C95.8151 45.575 95.1953 45.7404 94.6513 46.0713C94.1073 46.4022 93.6769 46.8572 93.3601 47.4362C93.0502 48.0084 92.8953 48.6633 92.8953 49.4009Z" fill="white"/>
<g clip-path="url(#clip0_1_136)">
<path d="M69.5469 15.0518C69.4987 21.5578 64.2002 26.7976 57.701 26.7631C56.8516 26.7631 56.2593 25.922 56.5417 25.1199C57.7446 21.7187 58.3232 18.1037 58.2382 14.491C58.2267 13.9877 57.639 14.059 57.5725 14.3531L56.5141 19.501C56.4384 19.8687 56.0963 20.1284 55.7221 20.0824C55.3479 20.0456 55.0633 19.7308 55.0633 19.3539L55.0472 12.3032C55.0472 12.0918 54.8727 11.9194 54.6615 11.9194C54.4664 11.9194 54.3034 12.0665 54.2804 12.2595L53.5504 18.5243C53.5068 18.8966 53.1946 19.1746 52.8226 19.1746C52.8204 19.1746 52.8204 19.1746 52.8181 19.1746C52.4439 19.1723 52.1316 18.8874 52.0926 18.5151L51.3442 11.2116C51.3121 10.8898 50.7542 10.8944 50.7267 11.2162L50.1757 17.6579C50.1459 18.0095 49.8681 18.2898 49.5168 18.3243C49.1702 18.3703 48.8396 18.1405 48.7409 17.8003L47.3015 12.8938C47.2579 12.7421 47.1155 12.6456 46.9571 12.664C46.7803 12.6824 46.6564 12.8341 46.6702 13.011L47.2188 19.7193C47.2464 20.0387 47.0604 20.3398 46.762 20.4593C46.4635 20.5788 46.1215 20.4915 45.9195 20.241L44.6591 18.6851C44.4112 18.3795 43.9727 18.3082 43.6398 18.5243C43.3024 18.7403 43.1899 19.1746 43.3735 19.5308L45.7037 25.051C46.0457 25.8645 45.4511 26.7631 44.5696 26.7631H40.9148C35.9836 26.7838 31.9684 22.8034 31.9386 17.867C31.9317 15.4999 32.889 13.2316 34.5901 11.5862C35.7931 10.3888 37.3129 9.56381 38.9681 9.2076C39.2412 6.9784 40.2559 4.90548 41.8538 3.32896C45.8253 -0.554898 52.1661 -0.559494 56.1445 3.31747L56.2616 3.43467C61.1974 2.77051 66.0115 5.30766 68.259 9.75456C69.1107 11.3908 69.5515 13.2087 69.5469 15.0518Z" fill="white"/>
</g>
<defs>
<clipPath id="clip0_1_136">
<rect width="37.6083" height="26.3505" fill="white" transform="translate(31.9387 0.411652)"/>
</clipPath>
</defs>
</svg>
