<svg width="32" height="33" viewBox="0 0 32 33" fill="none" xmlns="http://www.w3.org/2000/svg">
<path d="M31.7318 14.2031C30.9462 14.1244 30.1968 13.834 29.5632 13.363C28.9297 12.8919 28.4358 12.2578 28.1343 11.5282C27.8327 10.7986 27.7347 10.0008 27.8508 9.21991C27.9668 8.43902 28.2926 7.70423 28.7933 7.09386L28.8091 7.07806L27.1187 5.40344L25.444 3.72882H25.4282C24.662 4.37055 23.6946 4.72281 22.6951 4.72412C21.6088 4.72968 20.5596 4.32942 19.7531 3.60175C18.9465 2.87409 18.4407 1.87146 18.3348 0.790334V0.774536H13.5795V0.790334C13.5028 1.57694 13.2137 2.32789 12.7429 2.96275C12.2722 3.59762 11.6377 4.09249 10.9073 4.39439C10.1769 4.69629 9.37811 4.79384 8.59652 4.6766C7.81493 4.55936 7.07994 4.23174 6.47027 3.72882L6.45447 3.71302L4.77985 5.40344L3.10522 7.07806L3.12102 7.09386C3.62174 7.70423 3.94747 8.43902 4.06353 9.21991C4.17958 10.0008 4.08161 10.7986 3.78004 11.5282C3.47847 12.2578 2.9846 12.8919 2.35107 13.363C1.71754 13.834 0.968075 14.1244 0.182537 14.2031H0.15094V18.9584H0.166738C0.951049 19.036 1.6996 19.325 2.33255 19.7946C2.9655 20.2642 3.45912 20.8968 3.76075 21.6249C4.06238 22.3531 4.16072 23.1494 4.04527 23.929C3.92983 24.7087 3.60493 25.4424 3.10522 26.0518V26.0676L4.77985 27.7423L6.45447 29.4327L6.47027 29.4169C7.07994 28.914 7.81493 28.5863 8.59652 28.4691C9.37811 28.3519 10.1769 28.4494 10.9073 28.7513C11.6377 29.0532 12.2722 29.5481 12.7429 30.183C13.2137 30.8178 13.5028 31.5688 13.5795 32.3554V32.3712H18.3348V32.3554C18.4407 31.2742 18.9465 30.2716 19.7531 29.5439C20.5596 28.8163 21.6088 28.416 22.6951 28.4216C23.6946 28.4229 24.662 28.7752 25.4282 29.4169H25.444L27.1187 27.7423L28.8091 26.0676C28.3062 25.458 27.9785 24.723 27.8613 23.9414C27.7441 23.1598 27.8416 22.361 28.1435 21.6306C28.4454 20.9002 28.9403 20.2657 29.5752 19.795C30.21 19.3242 30.961 19.0351 31.7476 18.9584V14.2031H31.7318ZM15.9493 22.1023C14.8556 22.1023 13.7866 21.778 12.8773 21.1704C11.968 20.5628 11.2593 19.6992 10.8407 18.6889C10.4222 17.6785 10.3127 16.5667 10.5261 15.4941C10.7394 14.4215 11.2661 13.4363 12.0394 12.663C12.8127 11.8897 13.7979 11.363 14.8705 11.1497C15.9431 10.9363 17.0549 11.0458 18.0653 11.4643C19.0756 11.8829 19.9392 12.5916 20.5468 13.5009C21.1544 14.4102 21.4787 15.4792 21.4787 16.5729C21.4787 18.0393 20.8961 19.4458 19.8591 20.4827C18.8222 21.5197 17.4157 22.1023 15.9493 22.1023V22.1023Z" fill="white"/>
</svg>
