<svg width="33" height="29" viewBox="0 0 33 29" fill="none" xmlns="http://www.w3.org/2000/svg">
<path d="M29.0895 18.1097V26.546C29.0886 27.1575 28.8454 27.7437 28.413 28.1761C27.9806 28.6085 27.3944 28.8517 26.7829 28.8526H17.5883V22.5333H15.2185V28.8526H6.00811C5.39912 28.8484 4.81649 28.6036 4.38734 28.1714C3.95818 27.7393 3.71734 27.155 3.71736 26.546V18.1097C3.71487 18.0773 3.72029 18.0448 3.73315 18.0149C3.78055 18.0307 3.82794 18.0307 3.89114 18.0465C4.04214 18.0785 4.19525 18.0997 4.34929 18.1097C4.67234 18.1686 5.00047 18.1951 5.32878 18.1887C7.38673 18.1912 9.36879 17.4119 10.874 16.0085C12.3714 17.4093 14.3451 18.1886 16.3955 18.1886C18.4459 18.1886 20.4197 17.4093 21.917 16.0085C23.4162 17.4115 25.3932 18.191 27.4464 18.1887C27.7852 18.1951 28.1238 18.1686 28.4575 18.1097C28.6313 18.0939 28.8051 18.0623 28.9789 18.0307C29.0105 18.0307 29.0421 18.0149 29.0737 18.0149C29.0865 18.0448 29.092 18.0773 29.0895 18.1097Z" fill="white"/>
<path d="M27.8809 1.94179C27.7559 1.63111 27.5414 1.3646 27.2646 1.17613C26.9878 0.987659 26.6612 0.885731 26.3263 0.883301H6.4805C6.14563 0.885731 5.81905 0.987659 5.54225 1.17613C5.26545 1.3646 5.05092 1.63111 4.92594 1.94179L0.605103 12.958C0.860665 13.398 1.18312 13.7956 1.5609 14.1365C1.66091 14.2366 1.76925 14.3281 1.88477 14.4098C2.4354 14.853 3.06772 15.1836 3.74581 15.383C3.93381 15.4336 4.13919 15.4857 4.34298 15.5204C4.66853 15.5901 5.00063 15.6245 5.33354 15.6231C6.42173 15.6275 7.48666 15.3083 8.39301 14.706C9.29936 14.1037 10.0062 13.2456 10.4238 12.2407C10.442 12.1944 10.4713 12.1531 10.5091 12.1206C10.5291 12.0747 10.5658 12.038 10.6118 12.018C10.6881 11.969 10.777 11.9429 10.8677 11.9429C10.9584 11.9429 11.0473 11.969 11.1236 12.018C11.1696 12.038 11.2062 12.0747 11.2263 12.1206C11.2641 12.1531 11.2934 12.1944 11.3116 12.2407C11.7331 13.2425 12.4408 14.0976 13.3462 14.6989C14.2515 15.3003 15.3142 15.621 16.4011 15.621C17.4879 15.621 18.5506 15.3003 19.4559 14.6989C20.3613 14.0976 21.069 13.2425 21.4905 12.2407C21.5087 12.1944 21.538 12.1531 21.5758 12.1206C21.5834 12.0966 21.5968 12.0747 21.6146 12.0568C21.6325 12.0389 21.6544 12.0256 21.6785 12.018C21.7514 11.9678 21.8379 11.9409 21.9265 11.9409C22.0151 11.9409 22.1016 11.9678 22.1745 12.018C22.1986 12.0256 22.2205 12.0389 22.2384 12.0568C22.2563 12.0747 22.2696 12.0966 22.2772 12.1206C22.3147 12.1534 22.344 12.1945 22.3625 12.2407C22.782 13.2443 23.4893 14.1011 24.3952 14.7031C25.3012 15.305 26.3651 15.6252 27.4528 15.6231C27.7914 15.6245 28.1293 15.5901 28.4607 15.5204C28.6661 15.4857 28.8699 15.4351 29.0579 15.383C30.3678 14.9877 31.4868 14.1246 32.2017 12.958L27.8809 1.94179Z" fill="white"/>
</svg>
