<svg width="79" height="24" viewBox="0 0 79 24" fill="none" xmlns="http://www.w3.org/2000/svg">
<path d="M14.768 12.3648C14.0996 11.8368 13.3694 11.3815 12.5836 11.0032C11.7935 10.6227 11.0163 10.2743 10.2476 9.95364C10.1088 9.89593 9.97428 9.83821 9.83976 9.7805C9.25683 9.53041 8.71233 9.28459 8.20627 9.04091C7.58277 8.74165 7.08098 8.40178 6.70303 8.0213C6.32295 7.64296 6.13291 7.18766 6.13291 6.65969C6.13291 6.0398 6.39982 5.54389 6.93364 5.16768C7.46746 4.79361 8.17851 4.60765 9.06679 4.60765C9.65399 4.60765 10.3928 4.71666 11.2811 4.93683C11.9046 5.09073 12.5473 5.34296 13.2135 5.69352L15.9637 2.36109C13.7601 1.16193 11.4562 0.563416 9.05184 0.563416C7.54433 0.563416 6.22259 0.822058 5.08663 1.34148C3.94852 1.8609 3.06665 2.58767 2.43888 3.52177C1.80897 4.45588 1.49508 5.54603 1.49508 6.79435C1.49508 7.80327 1.68939 8.66684 2.07802 9.38505C2.46877 10.1033 2.98124 10.7189 3.61969 11.2276C4.25814 11.7364 4.95851 12.1788 5.72294 12.5529C6.16281 12.7688 6.60054 12.9761 7.04041 13.1728C7.3607 13.3181 7.68313 13.4592 8.00342 13.5939C8.77212 13.9145 9.4853 14.2416 10.143 14.575C10.8028 14.9106 11.3323 15.2868 11.738 15.7058C12.1416 16.1247 12.3423 16.6356 12.3423 17.2341C12.3423 17.9823 12.0306 18.6128 11.4071 19.1216C10.7836 19.6303 10.0149 19.8847 9.09668 19.8847C8.42834 19.8847 7.70661 19.7757 6.93364 19.5555C6.16067 19.3353 5.41119 19.0318 4.68306 18.6428C4.17059 18.367 3.69869 18.0678 3.2695 17.7428L0.598267 20.9791C1.8047 21.9175 3.13498 22.6442 4.59338 23.1572C6.04964 23.6724 7.49949 23.9289 8.94721 23.9289C10.5124 23.9289 11.8982 23.6318 13.1067 23.0375C14.3132 22.4433 15.2612 21.6246 15.9488 20.5815C16.6364 19.5384 16.9823 18.3414 16.9823 16.9947C16.9823 15.9366 16.7794 15.0324 16.3759 14.2822C15.9723 13.534 15.4342 12.8949 14.768 12.3648Z" fill="white"/>
<path d="M24.5814 0.411987H20.2724V23.4782H24.5814V0.411987Z" fill="white"/>
<path d="M71.8653 15.2254L77.6093 8.50072H72.8967L69.9948 11.8545C69.5656 12.3547 69.1706 12.8271 68.8119 13.2696C68.4532 13.7142 68.1243 14.1716 67.8254 14.6419V1.01077H63.5143V23.4785H67.8254V19.943L69.1258 18.4146L73.4049 23.4785H78.6876L71.8653 15.2254Z" fill="white"/>
<path d="M35.288 8.19873C31.3484 8.19873 28.0879 11.0972 27.5135 14.8807C27.4558 15.2697 27.4259 15.6673 27.4259 16.0713C27.4259 16.4817 27.4579 16.8836 27.5156 17.2769C28.0964 21.0518 31.3548 23.9417 35.288 23.9417C38.6127 23.9417 41.4547 21.8769 42.6056 18.9591H38.4162C37.639 19.8035 36.5244 20.3314 35.288 20.3314C33.3556 20.3314 31.7221 19.0425 31.2054 17.2769H43.0605C43.1181 16.8836 43.1501 16.4817 43.1501 16.0713C43.1501 15.6673 43.1202 15.2697 43.0626 14.8807C42.4882 11.0972 39.2276 8.19873 35.288 8.19873ZM31.2011 14.8807C31.7136 13.1065 33.3492 11.809 35.288 11.809C37.2269 11.809 38.8625 13.1065 39.375 14.8807H31.2011Z" fill="white"/>
<path d="M52.8099 8.19873C48.8703 8.19873 45.6098 11.0972 45.0354 14.8807C44.9777 15.2697 44.9478 15.6673 44.9478 16.0713C44.9478 16.4817 44.9799 16.8836 45.0375 17.2769H56.8926C56.3759 19.0425 54.7424 20.3314 52.8099 20.3314C51.5736 20.3314 50.459 19.8035 49.6818 18.9591H45.4923C46.6432 21.8769 49.4853 23.9417 52.8099 23.9417C56.7431 23.9417 60.0016 21.0518 60.5824 17.2769C60.64 16.8836 60.6721 16.4817 60.6721 16.0713C60.6721 15.6673 60.6422 15.2697 60.5845 14.8807C60.0101 11.0972 56.7495 8.19873 52.8099 8.19873ZM48.723 14.8807C49.2355 13.1065 50.8711 11.809 52.8099 11.809C54.7488 11.809 56.3844 13.1065 56.8969 14.8807H48.723Z" fill="white"/>
</svg>
